<mxfile host="app.diagrams.net" modified="2022-01-16T21:50:22.353Z" agent="5.0 (Macintosh; Intel Mac OS X 10_15_7) AppleWebKit/605.1.15 (KHTML, like Gecko) Version/15.2 Safari/605.1.15" etag="dTUVHFUQhi8ma6Q1BycO" version="16.2.7" type="github">
  <diagram id="VXDLGeyGdZ4fwkkXqZ83" name="Page-1">
    <mxGraphModel dx="946" dy="673" grid="1" gridSize="10" guides="1" tooltips="1" connect="1" arrows="1" fold="1" page="1" pageScale="1" pageWidth="827" pageHeight="1169" math="0" shadow="0">
      <root>
        <mxCell id="0" />
        <mxCell id="1" parent="0" />
        <mxCell id="iZfNzyOT1Gbd8ZNJFc6o-1" value="" style="rounded=0;whiteSpace=wrap;html=1;" vertex="1" parent="1">
          <mxGeometry x="139" y="200" width="220" height="90" as="geometry" />
        </mxCell>
        <mxCell id="iZfNzyOT1Gbd8ZNJFc6o-2" value="&lt;span style=&quot;white-space: pre&quot;&gt;	&lt;/span&gt;{&lt;br&gt;&lt;span style=&quot;white-space: pre&quot;&gt;	&lt;/span&gt;name: &quot;Janis&quot;&lt;br&gt;&lt;div&gt;&lt;span style=&quot;white-space: pre&quot;&gt;	&lt;/span&gt;email: &quot;janis.minas@gmai.com&quot;,&lt;/div&gt;&lt;div&gt;&lt;span style=&quot;white-space: pre&quot;&gt;	dob: &quot;1955-12-17&quot;&lt;/span&gt;&lt;br&gt;&lt;/div&gt;&lt;span style=&quot;white-space: pre&quot;&gt;	&lt;/span&gt;}" style="text;html=1;strokeColor=none;fillColor=none;align=left;verticalAlign=middle;whiteSpace=wrap;rounded=0;" vertex="1" parent="1">
          <mxGeometry x="139" y="200" width="220" height="90" as="geometry" />
        </mxCell>
        <mxCell id="iZfNzyOT1Gbd8ZNJFc6o-9" style="edgeStyle=orthogonalEdgeStyle;rounded=0;orthogonalLoop=1;jettySize=auto;html=1;entryX=0.5;entryY=0;entryDx=0;entryDy=0;" edge="1" parent="1" source="iZfNzyOT1Gbd8ZNJFc6o-4" target="iZfNzyOT1Gbd8ZNJFc6o-5">
          <mxGeometry relative="1" as="geometry">
            <mxPoint x="459" y="175" as="targetPoint" />
          </mxGeometry>
        </mxCell>
        <mxCell id="iZfNzyOT1Gbd8ZNJFc6o-4" value="Post Request" style="text;html=1;strokeColor=#6c8ebf;fillColor=#dae8fc;align=center;verticalAlign=middle;whiteSpace=wrap;rounded=0;" vertex="1" parent="1">
          <mxGeometry x="139" y="160" width="100" height="30" as="geometry" />
        </mxCell>
        <mxCell id="iZfNzyOT1Gbd8ZNJFc6o-10" value="" style="edgeStyle=orthogonalEdgeStyle;rounded=0;orthogonalLoop=1;jettySize=auto;html=1;" edge="1" parent="1" source="iZfNzyOT1Gbd8ZNJFc6o-5" target="iZfNzyOT1Gbd8ZNJFc6o-6">
          <mxGeometry relative="1" as="geometry" />
        </mxCell>
        <mxCell id="iZfNzyOT1Gbd8ZNJFc6o-5" value="if email does&#39;t exist" style="text;html=1;strokeColor=#82b366;fillColor=#d5e8d4;align=center;verticalAlign=middle;whiteSpace=wrap;rounded=0;" vertex="1" parent="1">
          <mxGeometry x="409" y="230" width="100" height="30" as="geometry" />
        </mxCell>
        <mxCell id="iZfNzyOT1Gbd8ZNJFc6o-6" value="" style="shape=cylinder3;whiteSpace=wrap;html=1;boundedLbl=1;backgroundOutline=1;size=15;" vertex="1" parent="1">
          <mxGeometry x="559" y="195" width="130" height="100" as="geometry" />
        </mxCell>
      </root>
    </mxGraphModel>
  </diagram>
</mxfile>
